<svg version="1.1" id="Layer_1" xmlns="http://www.w3.org/2000/svg" xmlns:xlink="http://www.w3.org/1999/xlink" x="0px" y="0px"
	 width="100%" viewBox="0 0 128 128" enable-background="new 0 0 128 128" xml:space="preserve">
<path fill="#FFFFFF" opacity="1.000000" stroke="none" 
	d="
M129.000000,36.000000 
	C129.000000,67.333328 129.000000,98.166656 129.000000,129.000000 
	C86.333344,129.000000 43.666683,129.000000 1.000020,129.000000 
	C1.000013,86.333344 1.000013,43.666695 1.000007,1.000031 
	C43.666645,1.000021 86.333290,1.000021 128.999969,1.000010 
	C129.000000,12.500000 129.000000,24.000000 129.000000,36.000000 
M86.499115,3.999942 
	C67.499092,3.999942 48.492966,3.703752 29.500992,4.094797 
	C14.632137,4.400947 4.332242,14.623025 4.092573,29.606184 
	C3.735425,51.933727 3.785219,74.274971 4.176426,96.601379 
	C4.257177,101.209869 5.878133,106.152298 8.034971,110.291710 
	C13.243295,120.287582 22.836853,122.858360 33.167290,122.945328 
	C54.665688,123.126320 76.167877,123.118195 97.665596,122.900368 
	C101.967201,122.856773 106.519379,122.213066 110.501076,120.671211 
	C122.488487,116.029251 126.914833,106.027382 126.907318,94.060562 
	C126.892914,71.146515 126.401932,48.231514 125.967293,25.319593 
	C125.785774,15.750557 115.833420,6.295252 107.692490,5.126631 
	C101.044205,4.172278 94.235809,4.333391 86.499115,3.999942 
z"/>
<path fill="#000000" opacity="1.000000" stroke="none" 
	d="
M86.998756,3.999942 
	C94.235809,4.333391 101.044205,4.172278 107.692490,5.126631 
	C115.833420,6.295252 125.785774,15.750557 125.967293,25.319593 
	C126.401932,48.231514 126.892914,71.146515 126.907318,94.060562 
	C126.914833,106.027382 122.488487,116.029251 110.501076,120.671211 
	C106.519379,122.213066 101.967201,122.856773 97.665596,122.900368 
	C76.167877,123.118195 54.665688,123.126320 33.167290,122.945328 
	C22.836853,122.858360 13.243295,120.287582 8.034971,110.291710 
	C5.878133,106.152298 4.257177,101.209869 4.176426,96.601379 
	C3.785219,74.274971 3.735425,51.933727 4.092573,29.606184 
	C4.332242,14.623025 14.632137,4.400947 29.500992,4.094797 
	C48.492966,3.703752 67.499092,3.999942 86.998756,3.999942 
M120.999695,60.500000 
	C120.999565,49.001080 121.074562,37.501518 120.976486,26.003431 
	C120.891899,16.086969 112.675491,8.010850 102.823349,8.005189 
	C77.492317,7.990635 52.161251,7.983396 26.830236,8.008909 
	C17.047443,8.018763 9.023299,15.983127 9.010592,25.713070 
	C8.979467,49.544209 9.342319,73.382874 8.822357,97.202705 
	C8.629879,106.020226 18.983175,116.328835 27.611097,116.165436 
	C52.433285,115.695358 77.277451,115.655380 102.097321,116.183128 
	C110.992310,116.372253 121.699333,106.033112 121.168831,96.986870 
	C120.477333,85.195160 120.999680,73.332260 120.999695,60.500000 
z"/>
<path fill="#000B1D" opacity="1.000000" stroke="none" 
	d="
M120.999695,61.000000 
	C120.999680,73.332260 120.477333,85.195160 121.168831,96.986870 
	C121.699333,106.033112 110.992310,116.372253 102.097321,116.183128 
	C77.277451,115.655380 52.433285,115.695358 27.611097,116.165436 
	C18.983175,116.328835 8.629879,106.020226 8.822357,97.202705 
	C9.342319,73.382874 8.979467,49.544209 9.010592,25.713070 
	C9.023299,15.983127 17.047443,8.018763 26.830236,8.008909 
	C52.161251,7.983396 77.492317,7.990635 102.823349,8.005189 
	C112.675491,8.010850 120.891899,16.086969 120.976486,26.003431 
	C121.074562,37.501518 120.999565,49.001080 120.999695,61.000000 
M33.996960,82.259735 
	C37.459023,83.067825 40.921082,83.875916 45.028473,84.834633 
	C45.028473,78.380844 45.028473,73.286903 45.028473,68.415703 
	C49.545071,67.888283 53.695156,67.741226 57.686356,66.867973 
	C66.237343,64.997055 70.763924,58.743038 70.523689,49.782650 
	C70.298027,41.365730 65.302284,35.025738 56.722488,34.107876 
	C49.371922,33.321518 41.870522,33.945068 33.991203,33.945068 
	C33.991203,49.743988 33.991203,65.520988 33.996960,82.259735 
M75.005730,47.761662 
	C75.005730,50.042606 75.005730,52.323551 75.005730,54.576866 
	C77.002708,54.934891 78.512932,55.205647 80.292358,55.524670 
	C80.292358,65.113297 80.292358,74.366211 80.292358,83.648926 
	C84.017006,83.648926 87.392021,83.648926 91.190086,83.648926 
	C91.190086,73.896530 91.190086,64.491867 91.190086,55.122211 
	C93.706429,55.000450 95.783600,54.899937 97.782181,54.803230 
	C97.782181,51.631439 97.782181,49.022247 97.782181,46.025795 
	C95.481377,46.025795 93.393372,46.025795 91.381569,46.025795 
	C89.871422,40.100975 92.989143,38.170971 97.629822,37.824238 
	C97.629822,34.763134 97.629822,32.033718 97.629822,29.353844 
	C85.421272,28.127653 81.901672,31.383621 79.637535,45.581909 
	C78.119461,46.010857 76.617462,46.435257 75.005730,47.761662 
z"/>
<path fill="#FAFAFB" opacity="1.000000" stroke="none" 
	d="
M33.994080,81.778870 
	C33.991203,65.520988 33.991203,49.743988 33.991203,33.945068 
	C41.870522,33.945068 49.371922,33.321518 56.722488,34.107876 
	C65.302284,35.025738 70.298027,41.365730 70.523689,49.782650 
	C70.763924,58.743038 66.237343,64.997055 57.686356,66.867973 
	C53.695156,67.741226 49.545071,67.888283 45.028473,68.415703 
	C45.028473,73.286903 45.028473,78.380844 45.028473,84.834633 
	C40.921082,83.875916 37.459023,83.067825 33.994080,81.778870 
M50.834354,58.383106 
	C57.861858,57.292061 60.862377,54.233597 59.927101,49.114780 
	C58.947773,43.754879 53.484295,41.671711 45.297581,43.497669 
	C45.297581,48.422382 45.297581,53.326443 45.297581,58.490955 
	C47.069393,58.490955 48.543270,58.490955 50.834354,58.383106 
z"/>
<path fill="#FDFDFD" opacity="1.000000" stroke="none" 
	d="
M75.060593,47.310661 
	C76.617462,46.435257 78.119461,46.010857 79.637535,45.581909 
	C81.901672,31.383621 85.421272,28.127653 97.629822,29.353844 
	C97.629822,32.033718 97.629822,34.763134 97.629822,37.824238 
	C92.989143,38.170971 89.871422,40.100975 91.381569,46.025795 
	C93.393372,46.025795 95.481377,46.025795 97.782181,46.025795 
	C97.782181,49.022247 97.782181,51.631439 97.782181,54.803230 
	C95.783600,54.899937 93.706429,55.000450 91.190086,55.122211 
	C91.190086,64.491867 91.190086,73.896530 91.190086,83.648926 
	C87.392021,83.648926 84.017006,83.648926 80.292358,83.648926 
	C80.292358,74.366211 80.292358,65.113297 80.292358,55.524670 
	C78.512932,55.205647 77.002708,54.934891 75.005730,54.576866 
	C75.005730,52.323551 75.005730,50.042606 75.060593,47.310661 
z"/>
<path fill="#061122" opacity="1.000000" stroke="none" 
	d="
M50.425751,58.437031 
	C48.543270,58.490955 47.069393,58.490955 45.297581,58.490955 
	C45.297581,53.326443 45.297581,48.422382 45.297581,43.497669 
	C53.484295,41.671711 58.947773,43.754879 59.927101,49.114780 
	C60.862377,54.233597 57.861858,57.292061 50.425751,58.437031 
z"/>
</svg>